HIERARCHY
ROOT root
{
  OFFSET 158.576 82.3997 32.7916
  CHANNELS 6 Xposition Yposition Zposition Zrotation Xrotation Yrotation
  JOINT pelvis
  {
    OFFSET 0 0 0
    CHANNELS 3 Zrotation Xrotation Yrotation
    JOINT thorax
    {
      OFFSET 0 22.7874 -5
      CHANNELS 3 Zrotation Xrotation Yrotation
      JOINT rclavicle
      {
        OFFSET 0 28.1932 0
        CHANNELS 3 Zrotation Xrotation Yrotation
        JOINT rhumerus
        {
          OFFSET -18.7865 5.8498 0
          CHANNELS 3 Zrotation Xrotation Yrotation
          JOINT rradius
          {
            OFFSET -24.717 0 0
            CHANNELS 3 Zrotation Xrotation Yrotation
            JOINT rhand
            {
              OFFSET -24.7363 0 0
              CHANNELS 3 Zrotation Xrotation Yrotation
              End Site
              {
                OFFSET -8.2454 0 0
              }
            }
          }
        }
      }
      JOINT lclavicle
      {
        OFFSET 0 28.1932 0
        CHANNELS 3 Zrotation Xrotation Yrotation
        JOINT lhumerus
        {
          OFFSET 18.7865 5.8498 0
          CHANNELS 3 Zrotation Xrotation Yrotation
          JOINT lradius
          {
            OFFSET 24.717 0 0
            CHANNELS 3 Zrotation Xrotation Yrotation
            JOINT lhand
            {
              OFFSET 24.7363 0 0
              CHANNELS 3 Zrotation Xrotation Yrotation
              End Site
              {
                OFFSET 8.2454 0 0
              }
            }
          }
        }
      }
      JOINT head
      {
        OFFSET 0 35.4281 0
        CHANNELS 3 Zrotation Xrotation Yrotation
        End Site
        {
          OFFSET 0 11.8094 0
        }
      }
    }
    JOINT rfemur
    {
      OFFSET -9.1547 0 0
      CHANNELS 3 Zrotation Xrotation Yrotation
      JOINT rtibia
      {
        OFFSET 0 -43.3327 0
        CHANNELS 3 Zrotation Xrotation Yrotation
        JOINT rfoot
        {
          OFFSET 0 -38.9241 0
          CHANNELS 3 Zrotation Xrotation Yrotation
          JOINT rtoes
          {
            OFFSET 0 0 17.1698
            CHANNELS 3 Zrotation Xrotation Yrotation
            End Site
            {
              OFFSET 0 0 5.7233
            }
          }
        }
      }
    }
    JOINT lfemur
    {
      OFFSET 9.1547 0 0
      CHANNELS 3 Zrotation Xrotation Yrotation
      JOINT ltibia
      {
        OFFSET 0 -43.3327 0
        CHANNELS 3 Zrotation Xrotation Yrotation
        JOINT lfoot
        {
          OFFSET 0 -38.9241 0
          CHANNELS 3 Zrotation Xrotation Yrotation
          JOINT ltoes
          {
            OFFSET 0 0 17.1698
            CHANNELS 3 Zrotation Xrotation Yrotation
            End Site
            {
              OFFSET 0 0 5.7233
            }
          }
        }
      }
    }
  }
}
MOTION
Frames:	27
Frame Time:	0.00833333
-29.506 85.3057 121.39 -5.72228 -1.3099 86.9168 0 0 0 2.23371 -11.5444 -8.48059 26.9988 0 -11.699 48.7186 5.37896 -7.161 0 0 38.1958 -1.32641 -0.084023 7.24921 -29.2101 0 15.419 -47.8589 4.17946 10.789 0 0 -39.9918 -0.870003 -0.0641002 8.42791 -2.82414 3.24907 3.87654 -1.40711 -2.8667 -3.70614 0 13.0895 0 -0.00850735 1.39917 0.348404 0.0085 -67.7536 0 8.86347 -23.6683 -1.69829 0 40.6223 0 -0.260334 1.32095 11.0958 0.2639 -38.9046 0 
-29.3079 85.2344 120.995 -5.79105 -1.30454 87.5983 0 0 0 1.96622 -11.7172 -8.89276 26.9843 0 -11.8264 48.8797 4.65565 -7.31617 0 0 37.8043 -1.39044 -0.0898462 7.39611 -28.9604 0 15.1729 -47.5517 4.48988 10.3752 0 0 -40.72 -0.780771 -0.0575717 8.4269 -2.63904 3.21926 3.53979 -1.69006 -3.13062 -3.68741 0 13.9899 0 0.00454519 0.979289 -0.265939 -0.0045 -67.8602 0 8.66784 -22.3334 -1.70633 0 38.1759 0 -0.164003 0.872155 10.5676 0.1655 -42.6385 0 
-29.1176 85.1713 120.573 -5.8375 -1.2518 88.2679 0 0 0 1.65099 -11.8342 -9.29598 26.9865 0 -11.9388 49.034 3.91169 -7.48524 0 0 37.3654 -1.47389 -0.0969577 7.52531 -28.7634 0 14.939 -47.205 4.81479 9.9323 0 0 -41.4475 -0.691983 -0.0508474 8.4093 -2.46724 3.16737 3.19719 -2.04656 -3.4928 -3.62865 0 15.1559 0 0.00759252 0.516844 -0.841634 -0.0076 -68.1123 0 8.42332 -21.0603 -1.58746 0 35.7399 0 -0.0728404 0.406757 9.97525 0.0726 -45.1933 0 
-28.9367 85.1206 120.122 -5.86301 -1.1426 88.9358 0 0 0 1.2761 -11.897 -9.70338 27.0153 0 -12.0409 49.1743 3.15817 -7.66772 0 0 36.8899 -1.58482 -0.105754 7.63711 -28.6208 0 14.714 -46.815 5.14821 9.46011 0 0 -42.1572 -0.603413 -0.0441257 8.363 -2.30785 3.10505 2.85279 -2.49476 -3.98075 -3.57724 0 16.6367 0 0.00131133 0.0560847 -1.3394 -0.0013 -68.5658 0 8.09925 -19.8658 -1.37419 0 33.3666 0 0.00468358 -0.0364116 9.3321 -0.0061 -46.6448 0 
-28.7703 85.086 119.643 -5.87793 -0.985639 89.611 0 0 0 0.852331 -11.9159 -10.1251 27.0711 0 -12.138 49.2988 2.40878 -7.86079 0 0 36.3841 -1.73259 -0.117125 7.73422 -28.534 0 14.4917 -46.3851 5.4791 8.96208 0 0 -42.8308 -0.513886 -0.0372082 8.2781 -2.16316 3.04308 2.51054 -3.0278 -4.62765 -3.54778 0 18.4643 0 -0.0102066 -0.332143 -1.76013 0.0102 -69.273 0 7.6936 -18.7804 -1.09511 0 31.1198 0 0.0636795 -0.427389 8.64504 -0.0657 -47.1562 0 
-28.6224 85.0702 119.136 -5.88715 -0.780147 90.3037 0 0 0 0.375385 -11.8927 -10.5704 27.1576 0 -12.2312 49.4086 1.66437 -8.06913 0 0 35.8597 -1.91959 -0.13117 7.81722 -28.492 0 14.2707 -45.9279 5.80228 8.42879 0 0 -43.4398 -0.41922 -0.0298952 8.1471 -2.02915 2.98806 2.17145 -3.65521 -5.46282 -3.57325 0 20.6711 0 -0.0207808 -0.56852 -2.0934 0.0208 -70.291 0 7.19099 -17.8219 -0.804403 0 29.0499 0 0.102313 -0.74291 7.93997 -0.1046 -46.9421 0 
-28.4999 85.0746 118.61 -5.9032 -0.553921 91.0184 0 0 0 -0.12132 -11.8377 -11.0426 27.2662 0 -12.3207 49.5097 0.929677 -8.2932 0 0 35.3229 -2.14817 -0.148184 7.88903 -28.4891 0 14.047 -45.4593 6.10797 7.85668 0 0 -43.9612 -0.315722 -0.0219856 7.9687 -1.90846 2.94209 1.83782 -4.34459 -6.51288 -3.6362 0 23.2551 0 -0.0228676 -0.550525 -2.37861 0.0229 -71.6626 0 6.62261 -17.0206 -0.533571 0 27.2168 0 0.123064 -0.980848 7.22646 -0.1253 -46.2245 0 
-28.4046 85.099 118.063 -5.92252 -0.292761 91.7604 0 0 0 -0.661198 -11.7405 -11.5439 27.3999 0 -12.4152 49.6103 0.217669 -8.52376 0 0 34.7736 -2.41961 -0.168168 7.95103 -28.4991 0 13.8066 -45.0038 6.38107 7.25207 0 0 -44.3786 -0.200053 -0.0135749 7.7477 -1.7869 2.9028 1.50623 -5.12671 -7.7935 -3.78148 0 26.2301 0 -0.00876266 -0.193602 -2.59151 0.0088 -73.4208 0 5.96117 -16.3646 -0.36853 0 25.6307 0 0.129095 -1.13342 6.56319 -0.1312 -45.1983 0 
-28.3398 85.1417 117.502 -5.94707 -0.0103882 92.5272 0 0 0 -1.22935 -11.5973 -12.0699 27.5509 0 -12.516 49.7217 -0.465213 -8.75689 0 0 34.2141 -2.72737 -0.190823 8.00304 -28.502 0 13.5446 -44.587 6.61349 6.6135 0 0 -44.6764 -0.0693 -0.0045607 7.4945 -1.65847 2.8621 1.17677 -5.99161 -9.31083 -4.00323 0 29.5696 0 0.0286094 0.596114 -2.74775 -0.0286 -75.5541 0 5.22517 -15.848 -0.360815 0 24.2999 0 0.125227 -1.20648 5.98733 -0.1272 -44.036 0 
-28.3064 85.1994 116.943 -5.97236 0.246982 93.3074 0 0 0 -1.76482 -11.3995 -12.6104 27.7009 0 -12.6137 49.8558 -1.12302 -8.99444 0 0 33.6501 -3.05614 -0.214865 8.04296 -28.4906 0 13.2654 -44.2295 6.80175 5.93039 0 0 -44.843 0.0771838 0.0048611 7.224 -1.52858 2.80519 0.853623 -6.87986 -11.0506 -4.25983 0 33.2079 0 0.0962933 1.91118 -2.88491 -0.0964 -78.0138 0 4.48496 -15.4643 -0.500832 0 23.237 0 0.116151 -1.22207 5.49015 -0.118 -42.8907 0 
-28.3006 85.2679 116.39 -5.98217 0.478584 94.0884 0 0 0 -2.26427 -11.1263 -13.153 27.8445 0 -12.7085 50.0228 -1.74533 -9.22772 0 0 33.0811 -3.38933 -0.239012 8.06647 -28.4448 0 12.9644 -43.9518 6.93913 5.20674 0 0 -44.8793 0.237344 0.0143933 6.9546 -1.38849 2.71668 0.537704 -7.79733 -12.9915 -4.56375 0 37.0962 0 0.197245 3.79949 -2.97394 -0.1971 -80.6769 0 3.74983 -15.1698 -0.810753 0 22.403 0 0.104351 -1.1844 5.09779 -0.106 -41.8801 0 
-28.3169 85.342 115.851 -5.95963 0.668691 94.8508 0 0 0 -2.70081 -10.7586 -13.6814 27.9711 0 -12.7982 50.2321 -2.32319 -9.44754 0 0 32.5074 -3.70545 -0.261387 8.06728 -28.355 0 12.644 -43.7654 7.02374 4.44321 0 0 -44.7931 0.406197 0.0238358 6.7063 -1.23749 2.57858 0.233136 -8.72347 -15.1018 -4.90323 0 41.165 0 0.327955 6.28108 -2.99489 -0.3264 -83.3509 0 3.05583 -14.9239 -1.26166 0 21.7606 0 0.0914182 -1.10431 4.79959 -0.093 -41.0998 0 
-28.3485 85.4165 115.333 -5.88642 0.80806 95.5724 0 0 0 -3.05386 -10.279 -14.1782 28.0732 0 -12.8794 50.4896 -2.84606 -9.64571 0 0 31.93 -3.9802 -0.279724 8.0382 -28.2166 0 12.3096 -43.6737 7.05736 3.64173 0 0 -44.5986 0.576377 0.0326887 6.4976 -1.07547 2.3747 -0.0537462 -9.64143 -17.3462 -5.26519 0 45.3426 0 0.473197 9.32881 -2.91671 -0.4675 -85.776 0 2.43327 -14.6845 -1.80156 0 21.265 0 0.0780985 -0.992931 4.57209 -0.0796 -40.608 0 
-28.3883 85.4866 114.843 -5.74746 0.888722 96.2292 0 0 0 -3.3031 -9.67595 -14.6266 28.1463 0 -12.9437 50.7959 -3.31155 -9.82216 0 0 31.3557 -4.18466 -0.291655 7.9707 -28.0319 0 11.9689 -43.6698 7.04603 2.80621 0 0 -44.3159 0.739047 0.0409477 6.3442 -0.905281 2.09297 -0.31541 -10.5283 -19.6899 -5.62996 0 49.5568 0 0.602852 12.8635 -2.70596 -0.5883 -87.6821 0 1.91294 -14.4164 -2.35551 0 20.8749 0 0.0649423 -0.865569 4.3765 -0.0664 -40.4208 0 
-28.4303 85.5484 114.382 -5.53521 0.924152 96.8007 0 0 0 -3.45907 -8.94647 -15.0143 28.1913 0 -12.9993 51.1515 -3.69376 -9.9581 0 0 30.7788 -4.30072 -0.295499 7.85791 -27.8008 0 11.6289 -43.7416 6.9977 1.9463 0 0 -43.9698 0.883803 0.0483105 6.2568 -0.724873 1.72702 -0.545048 -11.3882 -22.1062 -5.98997 0 53.7506 0 0.666631 16.7437 -2.31281 -0.6388 -88.7881 0 1.49294 -14.0884 -2.87288 0 20.5395 0 0.0523361 -0.730835 4.19754 -0.0538 -40.5011 0 
-28.4693 85.5993 113.95 -5.24704 0.917175 97.2687 0 0 0 -3.51963 -8.09476 -15.3318 28.2109 0 -13.043 51.5494 -3.98734 -10.0524 0 0 30.2055 -4.30607 -0.289669 7.6933 -27.5349 0 11.3016 -43.8655 6.92761 1.06739 0 0 -43.5842 1.00063 0.0545747 6.2403 -0.53865 1.276 -0.734182 -12.2046 -24.5711 -6.32762 0 57.8688 0 0.603722 20.7817 -1.70111 -0.5646 -88.9616 0 1.18276 -13.6844 -3.28793 0 20.2273 0 0.0411491 -0.606115 4.00622 -0.0426 -40.7736 0 
-28.5032 85.6378 113.555 -4.89242 0.853202 97.6197 0 0 0 -3.46334 -7.14378 -15.5771 28.202 0 -13.074 51.9818 -4.19674 -10.1032 0 0 29.6412 -4.17873 -0.272865 7.46938 -27.2558 0 11.0009 -44.0146 6.85037 0.175956 0 0 -43.1807 1.07876 0.0593404 6.2922 -0.35913 0.746613 -0.872474 -12.9336 -27.0768 -6.62135 0 61.8655 0 0.36223 24.7495 -0.865174 -0.329 -88.2156 0 1.00969 -13.2217 -3.51807 0 19.9417 0 0.0329688 -0.522477 3.75266 -0.0343 -41.1346 0 
-28.5294 85.6664 113.182 -4.47313 0.789437 97.848 0 0 0 -3.36642 -6.09447 -15.7461 28.199 0 -13.0629 52.4215 -4.33733 -10.156 0 0 29.1118 -3.91793 -0.246639 7.20177 -26.9704 0 10.7079 -44.1532 6.77652 -0.686295 0 0 -42.7988 1.11926 0.0627055 6.4099 -0.174356 0.151579 -0.961403 -13.6412 -29.6042 -6.89492 0 65.7144 0 -0.116844 28.4441 0.245314 0.1027 -86.8354 0 0.893578 -12.663 -3.6175 0 19.618 0 0.0268263 -0.458839 3.50781 -0.0282 -41.4744 0 
-28.5502 85.685 112.841 -4.0162 0.689318 97.9531 0 0 0 -3.1849 -4.99073 -15.8494 28.1837 0 -13.0463 52.8712 -4.38935 -10.1603 0 0 28.5938 -3.52135 -0.211764 6.87985 -26.7061 0 10.4554 -44.258 6.72749 -1.54071 0 0 -42.4348 1.11098 0.0635047 6.5737 -0.005664 -0.495626 -0.989937 -14.2591 -32.1716 -7.13153 0 69.3904 0 -0.80886 31.6469 1.54135 0.6887 -85.0571 0 0.876796 -12.0688 -3.51539 0 19.3073 0 0.0242567 -0.454983 3.215 -0.0266953 -41.7005 0 
-28.5676 85.6969 112.527 -3.5383 0.570081 97.9402 0 0 0 -2.94716 -3.85536 -15.8931 28.1728 0 -13.0095 53.311 -4.37708 -10.1429 0 0 28.1007 -2.99879 -0.170789 6.51703 -26.4801 0 10.2347 -44.3003 6.71154 -2.363 0 0 -42.1065 1.05679 0.0624618 6.7674 0.144899 -1.17704 -0.959002 -14.8057 -34.7838 -7.34863 0 72.8751 0 -1.65463 34.2264 2.93998 1.3688 -83.2963 0 0.922537 -11.4529 -3.24886 0 19.0076 0 0.0244127 -0.505747 2.91051 -0.0271 -41.7513 0 
-28.5869 85.7045 112.237 -3.0694 0.429558 97.8242 0 0 0 -2.6585 -2.72784 -15.8941 28.1687 0 -12.9622 53.7321 -4.31377 -10.0991 0 0 27.6303 -2.36536 -0.126376 6.11691 -26.3083 0 10.0664 -44.2592 6.75194 -3.17192 0 0 -41.8008 0.960755 0.058465 6.9675 0.270217 -1.87469 -0.867564 -15.2837 -37.4639 -7.56672 0 76.152 0 -2.53384 36.1078 4.29445 2.0493 -81.9518 0 1.01544 -10.8627 -2.85072 0 18.7495 0 0.026758 -0.61476 2.61325 -0.0288797 -41.5984 0 
-28.604 85.7141 111.966 -2.59469 0.280802 97.6073 0 0 0 -2.33633 -1.59359 -15.8452 28.1868 0 -12.8773 54.1184 -4.22505 -10.0619 0 0 27.1879 -1.65713 -0.0826871 5.71391 -26.2024 0 9.8888 -44.1295 6.80875 -3.88655 0 0 -41.5578 0.834745 0.0521899 7.159 0.370436 -2.57799 -0.723933 -15.7009 -40.186 -7.78824 0 79.2001 0 -3.32591 37.2722 5.4813 2.6509 -81.0247 0 1.13042 -10.2675 -2.36947 0 18.5166 0 0.0302081 -0.76295 2.36491 -0.0315 -41.2566 0 
-28.6295 85.7255 111.715 -2.16344 0.108512 97.3209 0 0 0 -1.97221 -0.515324 -15.7783 28.2169 0 -12.7774 54.4722 -4.13027 -10.0183 0 0 26.766 -0.894156 -0.041422 5.3018 -26.167 0 9.741 -43.911 6.90994 -4.55324 0 0 -41.337 0.686957 0.0439391 7.3182 0.437638 -3.26936 -0.528861 -16.0696 -42.9938 -8.05212 0 82.0014 0 -3.90417 37.7521 6.36043 3.0934 -80.7586 0 1.26599 -9.75409 -1.8534 0 18.3671 0 0.0350323 -0.95611 2.1763 -0.0364 -40.7464 0 
-28.6611 85.7425 111.48 -1.76976 -0.0842747 96.9785 0 0 0 -1.57065 0.513602 -15.6981 28.2608 0 -12.6616 54.7924 -4.04134 -9.96994 0 0 26.3579 -0.115182 -0.0048821 4.8986 -26.2016 0 9.6174 -43.61 7.05233 -5.17486 0 0 -41.1254 0.534874 0.0347061 7.4303 0.472473 -3.94565 -0.289586 -16.4054 -45.8684 -8.37277 0 84.5314 0 -4.21559 37.6133 6.88622 3.3477 -81.011 0 1.41133 -9.31065 -1.35384 0 18.2951 0 0.0413472 -1.17663 2.07594 -0.0427 -40.1184 0 
-28.6989 85.767 111.26 -1.41777 -0.300997 96.5997 0 0 0 -1.12952 1.4851 -15.6174 28.3136 0 -12.5286 55.0816 -3.97649 -9.92453 0 0 25.9598 0.647084 0.0255205 4.5163 -26.2991 0 9.5061 -43.2475 7.2214 -5.73948 0 0 -40.9156 0.393111 0.0257782 7.4886 0.475945 -4.6026 -0.0131424 -16.7292 -48.8009 -8.77522 0 86.7678 0 -4.26784 36.9533 7.07625 3.4199 -81.5525 0 1.56516 -8.94409 -0.911585 0 18.3046 0 0.0498295 -1.41097 2.07553 -0.0511 -39.4276 0 
-28.7406 85.8002 111.054 -1.10427 -0.545083 96.2023 0 0 0 -0.645977 2.40026 -15.5465 28.3687 0 -12.381 55.3463 -3.94634 -9.88377 0 0 25.566 1.3618 0.0494691 4.1636 -26.4474 0 9.4031 -42.8488 7.40794 -6.24765 0 0 -40.6944 0.275827 0.0180446 7.4924 0.450828 -5.24043 0.293728 -17.066 -51.7729 -9.28581 0 88.6918 0 -4.11835 35.904 6.99984 3.3455 -82.0866 0 1.73081 -8.6485 -0.551875 0 18.3881 0 0.0610941 -1.64422 2.1735 -0.0624 -38.7316 0 
-28.7825 85.8429 110.86 -0.820968 -0.821773 95.8017 0 0 0 -0.114204 3.26715 -15.4951 28.4177 0 -12.2256 55.5946 -3.95019 -9.84191 0 0 25.1689 2.00328 0.0672481 3.8473 -26.6325 0 9.3165 -42.4382 7.61102 -6.71694 0 0 -40.4437 0.194541 0.012692 7.4468 0.401578 -5.86335 0.625271 -17.4411 -54.7601 -9.93293 -180 89.7093 180 -3.84552 34.6294 6.74594 3.1735 -82.3407 0 1.91754 -8.4083 -0.277382 0 18.531 0 0.0751671 -1.86313 2.35064 -0.0765 -38.086 0 
